<mxfile host="app.diagrams.net" modified="2021-06-16T02:08:31.210Z" agent="5.0 (Windows NT 10.0; Win64; x64) AppleWebKit/537.36 (KHTML, like Gecko) Chrome/91.0.4472.101 Safari/537.36 Edg/91.0.864.48" etag="Op19_yP-BaWBzuUWci8I" version="14.7.6" type="github">
  <diagram id="6kIvE9_RQZnhWBNIoi2b" name="Page-1">
    <mxGraphModel dx="2137" dy="1234" grid="1" gridSize="10" guides="1" tooltips="1" connect="1" arrows="1" fold="1" page="1" pageScale="1" pageWidth="850" pageHeight="1100" math="0" shadow="0">
      <root>
        <mxCell id="0" />
        <mxCell id="1" parent="0" />
        <mxCell id="fcOP9qCozdoWfwhe-e_2-2" value="Player" style="shape=umlActor;verticalLabelPosition=bottom;verticalAlign=top;html=1;outlineConnect=0;" vertex="1" parent="1">
          <mxGeometry x="10" y="630" width="60" height="120" as="geometry" />
        </mxCell>
        <mxCell id="fcOP9qCozdoWfwhe-e_2-3" value="Menu" style="ellipse;whiteSpace=wrap;html=1;" vertex="1" parent="1">
          <mxGeometry x="170" y="380" width="90" height="60" as="geometry" />
        </mxCell>
        <mxCell id="fcOP9qCozdoWfwhe-e_2-4" value="Play" style="ellipse;whiteSpace=wrap;html=1;" vertex="1" parent="1">
          <mxGeometry x="170" y="500" width="90" height="60" as="geometry" />
        </mxCell>
        <mxCell id="fcOP9qCozdoWfwhe-e_2-5" value="Resume" style="ellipse;whiteSpace=wrap;html=1;" vertex="1" parent="1">
          <mxGeometry x="170" y="640" width="90" height="60" as="geometry" />
        </mxCell>
        <mxCell id="fcOP9qCozdoWfwhe-e_2-6" value="Option" style="ellipse;whiteSpace=wrap;html=1;" vertex="1" parent="1">
          <mxGeometry x="170" y="780" width="90" height="60" as="geometry" />
        </mxCell>
        <mxCell id="fcOP9qCozdoWfwhe-e_2-7" value="Credits" style="ellipse;whiteSpace=wrap;html=1;" vertex="1" parent="1">
          <mxGeometry x="170" y="920" width="90" height="60" as="geometry" />
        </mxCell>
        <mxCell id="fcOP9qCozdoWfwhe-e_2-8" value="Quit" style="ellipse;whiteSpace=wrap;html=1;" vertex="1" parent="1">
          <mxGeometry x="170" y="1060" width="90" height="60" as="geometry" />
        </mxCell>
      </root>
    </mxGraphModel>
  </diagram>
</mxfile>
